{"title":"Precious Cargo (2016) 1080P WEB-DL DD5 1 H 264 NO CINAVIA","uid":14510462,"size":5317165958,"categoryP":"video","categoryS":"hd___movies","magnet":"?xt=urn:btih:2e3c4c9a7f142932240e5f6993260967b6940a1c&amp;dn=Precious+Cargo+%282016%29+1080P+WEB-DL+DD5+1+H+264+NO+CINAVIA&amp;tr=udp%3A%2F%2Ftracker.leechers-paradise.org%3A6969&amp;tr=udp%3A%2F%2Fzer0day.ch%3A1337&amp;tr=udp%3A%2F%2Fopen.demonii.com%3A1337&amp;tr=udp%3A%2F%2Ftracker.coppersurfer.tk%3A6969&amp;tr=udp%3A%2F%2Fexodus.desync.com%3A6969","seeders":1,"leechers":4,"uploader":"jmanwf","files":1,"time":1462264462,"description":"Storyline\r\n\r\nAfter a botched heist, Eddie (Bruce Willis), a murderous crime boss, hunts down the seductive thief Karen (Claire Forlani) who failed him. In order to win back Eddie's trust, Karen recruits her ex-lover and premier thief Jack (Mark-Paul Gosselaar) to steal a cargo of rare precious gems. But when the job goes down, allegiances are betrayed and lines are crossed as Jack, Karen, and Eddie face off in a fateful showdown. Lionsgate Premiere will release the action thriller in theaters and on demand on April 22, 2016.\r\n\r\n\r\nVideo\r\nID : 1\r\nFormat : AVC\r\nFormat/Info : Advanced Video Codec\r\nFormat profile :   \r\nFormat settings, CABAC : Yes\r\nFormat settings, ReFrames : 3 frames\r\nCodec ID : V_MPEG4/ISO/AVC\r\nDuration : 1h 30mn\r\nBit rate mode : Variable\r\nBit rate : 6 966 Kbps\r\nMaximum bit rate : 30.0 Mbps\r\nWidth : 1 920 pixels\r\nHeight : 1 080 pixels\r\nDisplay aspect ratio : 16:9\r\nFrame rate mode : Constant\r\nFrame rate : 23.976 (24000/1001) fps\r\nColor space : YUV\r\nChroma subsampling : 4:2:0\r\nBit depth : 8 bits\r\nScan type : Progressive\r\nBits/(Pixel*Frame) : 0.140\r\nStream size : 4.39 GiB (89%)\r\nLanguage : English\r\nDefault : Yes\r\nForced : No\r\nColor range : Limited\r\nColor primaries : BT.709\r\nTransfer characteristics : BT.709\r\nMatrix coefficients : BT.709\r\n\r\nAudio #1\r\nID : 2\r\nFormat : AC-3\r\nFormat/Info : Audio Coding 3\r\nMode extension : CM (complete main)\r\nFormat settings, Endianness : Big\r\nCodec ID : A_AC3\r\nDuration : 1h 30mn\r\nBit rate mode : Constant\r\nBit rate : 224 Kbps\r\nChannel(s) : 2 channels\r\nChannel positions : Front: L R\r\nSampling rate : 48.0 KHz\r\nFrame rate : 31.250 fps (1536 spf)\r\nCompression mode : Lossy\r\nDelay relative to video : -125ms\r\nStream size : 145 MiB (3%)\r\nLanguage : English\r\nDefault : Yes\r\nForced : No\r\n\r\nAudio #2\r\nID : 3\r\nFormat : AC-3\r\nFormat/Info : Audio Coding 3\r\nMode extension : CM (complete main)\r\nFormat settings, Endianness : Big\r\nCodec ID : A_AC3\r\nDuration : 1h 30mn\r\nBit rate mode : Constant\r\nBit rate : 640 Kbps\r\nChannel(s) : 6 channels\r\nChannel positions : Front: L C R, Side: L R, LFE\r\nSampling rate : 48.0 KHz\r\nFrame rate : 31.250 fps (1536 spf)\r\nCompression mode : Lossy\r\nDelay relative to video : -125ms\r\nStream size : 413 MiB (8%)\r\nLanguage : English\r\nDefault : No\r\nForced : No\r\n\r\nText\r\nID : 4\r\nFormat : PGS\r\nMuxing mode : zlib\r\nCodec ID : S_HDMV/PGS\r\nCodec ID/Info : Picture based subtitle format used on BDs/HD-DVDs\r\nDuration : 1h 29mn\r\nBit rate : 22.0 Kbps\r\nCount of elements : 11768\r\nStream size : 14.1 MiB (0%)\r\nLanguage : English\r\nDefault : Yes\r\nForced : No\r\n\r\n \nhttp://www.imdb.com/title/tt4651410/\r\n\r\n\r\n \nhttp://s32.postimg.org/npg7hlwut/image.jpg\r\n\r\n\r\n \nhttp://s32.postimg.org/rcvyno51x/image.jpg\r\n\r\n\r\n\r\n \nhttp://s32.postimg.org/6z4ts9yfp/image.jpg","torrent":{"xt":"urn:btih:2e3c4c9a7f142932240e5f6993260967b6940a1c","amp;dn":"Precious+Cargo+%282016%29+1080P+WEB-DL+DD5+1+H+264+NO+CINAVIA","amp;tr":["udp%3A%2F%2Ftracker.leechers-paradise.org%3A6969","udp%3A%2F%2Fzer0day.ch%3A1337","udp%3A%2F%2Fopen.demonii.com%3A1337","udp%3A%2F%2Ftracker.coppersurfer.tk%3A6969","udp%3A%2F%2Fexodus.desync.com%3A6969"],"infoHash":"2e3c4c9a7f142932240e5f6993260967b6940a1c","infoHashBuffer":{"type":"Buffer","data":[46,60,76,154,127,20,41,50,36,14,95,105,147,38,9,103,182,148,10,28]},"announce":[],"urlList":[]}}